<svg width="509" height="649" xmlns="http://www.w3.org/2000/svg" xmlns:xlink="http://www.w3.org/1999/xlink" overflow="hidden"><defs><clipPath id="clip0"><path d="M0 0 509 0 509 649 0 649Z" fill-rule="evenodd" clip-rule="evenodd"/></clipPath></defs><g clip-path="url(#clip0)"><rect x="0" y="0" width="508.833" height="649" fill="#FFFFFF" transform="scale(1.00033 1)"/><rect x="0" y="0" width="506.834" height="190" fill="#F3EEF5" transform="matrix(1.00033 0 -0 1 1.00001 238)"/><text font-family="Calibri,Calibri_MSFontService,sans-serif" font-weight="400" font-size="19" transform="matrix(1 0 0 0.999673 336.461 260)">Abstract Syntax Tree</text><path d="M0 0 0.000104987 8.11171" stroke="#000000" stroke-width="1.33333" stroke-miterlimit="8" fill="none" fill-rule="evenodd" transform="matrix(1.00033 0 -0 1 183.5 265.5)"/><path d="M0 0-74.5317-13.4777" stroke="#000000" stroke-width="1.33333" stroke-miterlimit="8" fill="none" fill-rule="evenodd" transform="matrix(1.00033 8.74514e-08 8.74228e-08 -1 184.056 295.5)"/><path d="M0 0 94.753 12.8781" stroke="#000000" stroke-width="1.33333" stroke-miterlimit="8" fill="none" fill-rule="evenodd" transform="matrix(1.00033 0 -0 1 183.5 295.5)"/><path d="M0 0 61.4606 8.49963" stroke="#000000" stroke-width="1.33333" stroke-miterlimit="8" fill="none" fill-rule="evenodd" transform="matrix(1.00033 0 -0 1 278.5 330.5)"/><path d="M0 0-59.5014-8.49963" stroke="#000000" stroke-width="1.33333" stroke-miterlimit="8" fill="none" fill-rule="evenodd" transform="matrix(1.00033 8.74514e-08 8.74228e-08 -1 279.021 330.5)"/><path d="M0 0 0.000104987 7.90005" stroke="#000000" stroke-width="1.33333" stroke-miterlimit="8" fill="none" fill-rule="evenodd" transform="matrix(1.00033 0 -0 1 109.5 331.5)"/><path d="M0 0-67.7639-9.40032" stroke="#000000" stroke-width="1.33333" stroke-miterlimit="8" fill="none" fill-rule="evenodd" transform="matrix(1.00033 8.74514e-08 8.74228e-08 -1 109.286 361.5)"/><path d="M0 0-0.147822-9.40032" stroke="#000000" stroke-width="1.33333" stroke-miterlimit="8" fill="none" fill-rule="evenodd" transform="matrix(1.00033 8.74514e-08 8.74228e-08 -1 109.648 361.5)"/><path d="M0 0 0.000104987 9.4001" stroke="#000000" stroke-width="1.33333" stroke-miterlimit="8" fill="none" fill-rule="evenodd" transform="matrix(1.00033 0 -0 1 109.5 392.5)"/><path d="M0 0 0.245354 9.40021" stroke="#000000" stroke-width="1.33333" stroke-miterlimit="8" fill="none" fill-rule="evenodd" transform="matrix(1.00033 0 -0 1 193.5 392.5)"/><path d="M0 0 83.9078 9.40032" stroke="#000000" stroke-width="1.33333" stroke-miterlimit="8" fill="none" fill-rule="evenodd" transform="matrix(1.00033 0 -0 1 109.5 361.5)"/><rect x="0" y="0" width="59.9803" height="22" stroke="#8E699F" stroke-width="2" stroke-miterlimit="8" fill="#E1D5E7" transform="matrix(1.00033 0 -0 1 79 309)"/><text font-family="Calibri,Calibri_MSFontService,sans-serif" font-weight="400" font-size="15" transform="matrix(1 0 0 0.999673 90.9563 325)">Select</text><rect x="0" y="0" width="59.9803" height="22" stroke="#8E699F" stroke-width="2" stroke-miterlimit="8" fill="#E1D5E7" transform="matrix(1.00033 0 -0 1 248 308)"/><text font-family="Calibri,Calibri_MSFontService,sans-serif" font-weight="400" font-size="15" transform="matrix(1 0 0 0.999673 260.63 324)">Order</text><path d="M0 0-69.2699-9.40032" stroke="#000000" stroke-width="1.33333" stroke-miterlimit="8" fill="none" fill-rule="evenodd" transform="matrix(1.00033 8.74514e-08 8.74228e-08 -1 339.793 361.5)"/><path d="M0 0 0.167454 9.40032" stroke="#000000" stroke-width="1.33333" stroke-miterlimit="8" fill="none" fill-rule="evenodd" transform="matrix(1.00033 0 -0 1 340.5 361.5)"/><rect x="0" y="0" width="50.9833" height="22" stroke="#8E699F" stroke-width="2" stroke-miterlimit="8" fill="#FFFFFF" transform="matrix(1.00033 0 -0 1 83 401)"/><text font-family="Calibri,Calibri_MSFontService,sans-serif" font-weight="400" font-size="15" transform="matrix(1 0 0 0.999673 102.979 417)">Id</text><rect x="0" y="0" width="101.967" height="22" stroke="#8E699F" stroke-width="2" stroke-miterlimit="8" fill="#FFFFFF" transform="matrix(1.00033 0 -0 1 142 401)"/><text font-family="Calibri,Calibri_MSFontService,sans-serif" font-weight="400" font-size="14" transform="matrix(1 0 0 0.999673 158.632 417)">CARS_DATA</text><rect x="0" y="0" width="95.9686" height="22" stroke="#8E699F" stroke-width="2" stroke-miterlimit="8" fill="#FFFFFF" transform="matrix(1.00033 0 -0 1 292 401)"/><text font-family="Calibri,Calibri_MSFontService,sans-serif" font-weight="400" font-size="15" transform="matrix(1 0 0 0.999673 303.391 417)">Horsepower</text><rect x="0" y="0" width="101.967" height="22" stroke="#8E699F" stroke-width="2" stroke-miterlimit="8" fill="#FFFFFF" transform="matrix(1.00033 0 -0 1 394 401)"/><text font-family="Calibri,Calibri_MSFontService,sans-serif" font-weight="400" font-size="14" transform="matrix(1 0 0 0.999673 410.343 417)">CARS_DATA</text><path d="M0 0 0.285984 9.40021" stroke="#000000" stroke-width="1.33333" stroke-miterlimit="8" fill="none" fill-rule="evenodd" transform="matrix(1.00033 0 -0 1 340.5 392.5)"/><path d="M0 0 0.0116535 9.40021" stroke="#000000" stroke-width="1.33333" stroke-miterlimit="8" fill="none" fill-rule="evenodd" transform="matrix(1.00033 0 -0 1 445.5 392.5)"/><path d="M0 0 105.024 9.40032" stroke="#000000" stroke-width="1.33333" stroke-miterlimit="8" fill="none" fill-rule="evenodd" transform="matrix(1.00033 0 -0 1 340.5 361.5)"/><rect x="0" y="0" width="51.983" height="22" stroke="#8E699F" stroke-width="2" stroke-miterlimit="8" fill="#FFFFFF" transform="matrix(1.00033 0 -0 1 15 370)"/><text font-family="Calibri,Calibri_MSFontService,sans-serif" font-weight="400" font-size="15" transform="matrix(1 0 0 0.999673 28.5059 386)">max</text><rect x="0" y="0" width="50.9833" height="22" stroke="#8E699F" stroke-width="2" stroke-miterlimit="8" fill="#E1D5E7" transform="matrix(1.00033 0 -0 1 83 370)"/><text font-family="Calibri,Calibri_MSFontService,sans-serif" font-weight="400" font-size="15" transform="matrix(1 0 0 0.999673 99.2284 386)">Col</text><rect x="0" y="0" width="51.983" height="22" stroke="#8E699F" stroke-width="2" stroke-miterlimit="8" fill="#E1D5E7" transform="matrix(1.00033 0 -0 1 167 370)"/><text font-family="Calibri,Calibri_MSFontService,sans-serif" font-weight="400" font-size="15" transform="matrix(1 0 0 0.999673 181.811 386)">Tab</text><rect x="0" y="0" width="51.983" height="22" stroke="#8E699F" stroke-width="2" stroke-miterlimit="8" fill="#FFFFFF" transform="matrix(1.00033 0 -0 1 244 370)"/><text font-family="Calibri,Calibri_MSFontService,sans-serif" font-weight="400" font-size="15" transform="matrix(1 0 0 0.999673 255.153 386)">none</text><rect x="0" y="0" width="50.9833" height="22" stroke="#8E699F" stroke-width="2" stroke-miterlimit="8" fill="#E1D5E7" transform="matrix(1.00033 0 -0 1 314 370)"/><text font-family="Calibri,Calibri_MSFontService,sans-serif" font-weight="400" font-size="15" transform="matrix(1 0 0 0.999673 330.365 386)">Col</text><rect x="0" y="0" width="69.9771" height="22" stroke="#8E699F" stroke-width="2" stroke-miterlimit="8" fill="#E1D5E7" transform="matrix(1.00033 0 -0 1 410 370)"/><text font-family="Calibri,Calibri_MSFontService,sans-serif" font-weight="400" font-size="15" transform="matrix(1 0 0 0.999673 433.755 386)">Tab</text><path d="M0 0 0.000104987 8.49963" stroke="#000000" stroke-width="1.33333" stroke-miterlimit="8" fill="none" fill-rule="evenodd" transform="matrix(1.00033 0 -0 1 278.5 330.5)"/><rect x="0" y="0" width="59.9803" height="22" stroke="#8E699F" stroke-width="2" stroke-miterlimit="8" fill="#E1D5E7" transform="matrix(1.00033 0 -0 1 79 339)"/><text font-family="Calibri,Calibri_MSFontService,sans-serif" font-weight="400" font-size="15" transform="matrix(1 0 0 0.999673 97.7085 355)">Agg</text><rect x="0" y="0" width="58.9807" height="22" stroke="#8E699F" stroke-width="2" stroke-miterlimit="8" fill="#E1D5E7" transform="matrix(1.00033 0 -0 1 310 339)"/><text font-family="Calibri,Calibri_MSFontService,sans-serif" font-weight="400" font-size="15" transform="matrix(1 0 0 0.999673 328.529 355)">Agg</text><rect x="0" y="0" width="51.983" height="22" stroke="#8E699F" stroke-width="2" stroke-miterlimit="8" fill="#FFFFFF" transform="matrix(1.00033 0 -0 1 193 339)"/><text font-family="Calibri,Calibri_MSFontService,sans-serif" font-weight="400" font-size="15" transform="matrix(1 0 0 0.999673 205.194 355)">desc</text><rect x="0" y="0" width="51.983" height="22" stroke="#8E699F" stroke-width="2" stroke-miterlimit="8" fill="#FFFFFF" transform="matrix(1.00033 0 -0 1 252 339)"/><text font-family="Calibri,Calibri_MSFontService,sans-serif" font-weight="400" font-size="15" transform="matrix(1 0 0 0.999673 264.882 355)">limit</text><rect x="0" y="0" width="58.9807" height="22" stroke="#8E699F" stroke-width="2" stroke-miterlimit="8" fill="#E1D5E7" transform="matrix(1.00033 0 -0 1 154 273)"/><text font-family="Calibri,Calibri_MSFontService,sans-serif" font-weight="400" font-size="15" transform="matrix(1 0 0 0.999673 169.264 289)">Root</text><rect x="0" y="0" width="58.9807" height="22" stroke="#8E699F" stroke-width="2" stroke-miterlimit="8" fill="#E1D5E7" transform="matrix(1.00033 0 -0 1 154 243)"/><text font-family="Calibri,Calibri_MSFontService,sans-serif" font-weight="400" font-size="15" transform="matrix(1 0 0 0.999673 169.097 259)">Start</text><rect x="0" y="0" width="76.9748" height="32" stroke="#000000" stroke-width="1.33333" stroke-miterlimit="8" fill="#CCCCFF" transform="matrix(1.00033 0 -0 1 43.5 477.5)"/><text font-family="Calibri,Calibri_MSFontService,sans-serif" font-weight="400" font-size="16" transform="matrix(1 0 0 0.999673 53.7497 498)">Decoder<tspan font-size="15" x="13.1864" y="49.0161">Start</tspan></text><path d="M0.666702 6.66666 0.666772 19.9639-0.666562 19.9639-0.666632 6.66667ZM-3.99996 8.00002 0 0 4.00004 7.99998Z" transform="matrix(1.00033 0 -0 1 81.5 509.5)"/><path d="M0.666702 6.66666 0.666772 19.9639-0.666562 19.9639-0.666632 6.66667ZM-3.99996 8.00002 0 0 4.00004 7.99998Z" transform="matrix(1.00033 0 -0 1 82.5 456.5)"/><text font-family="Calibri,Calibri_MSFontService,sans-serif" font-weight="400" font-size="15" transform="matrix(1 0 0 0.999673 43.7789 448)">Start<tspan font-family="Cambria Math,Cambria Math_MSFontService,sans-serif" x="31.8438" y="0">→</tspan><tspan font-family="Cambria Math,Cambria Math_MSFontService,sans-serif" x="44.1811" y="0"> </tspan>Root</text><rect x="0" y="0" width="76.9748" height="32" stroke="#000000" stroke-width="1.33333" stroke-miterlimit="8" fill="#CCCCFF" transform="matrix(1.00033 0 -0 1 144.5 477.5)"/><text font-family="Calibri,Calibri_MSFontService,sans-serif" font-weight="400" font-size="16" transform="matrix(1 0 0 0.999673 154.783 498)">Decoder<tspan font-size="15" x="-6.05505" y="50.0164">Start</tspan><tspan font-family="Cambria Math,Cambria Math_MSFontService,sans-serif" font-size="15" x="25.7887" y="50.0164">→</tspan><tspan font-family="Cambria Math,Cambria Math_MSFontService,sans-serif" font-size="15" x="38.1261" y="50.0164"> </tspan><tspan font-size="15" x="41.2938" y="50.0164">Root</tspan></text><path d="M0.666702 6.66666 0.666772 19.9639-0.666562 19.9639-0.666632 6.66667ZM-3.99996 8.00002 0 0 4.00004 7.99998Z" transform="matrix(1.00033 0 -0 1 182.5 509.5)"/><path d="M0.666702 6.66666 0.666772 19.9639-0.666562 19.9639-0.666632 6.66667ZM-3.99996 8.00002 0 0 4.00004 7.99998Z" transform="matrix(1.00033 0 -0 1 183.5 456.5)"/><text font-family="Calibri,Calibri_MSFontService,sans-serif" font-weight="400" font-size="15" transform="matrix(1 0 0 0.999673 129.566 448)">Root<tspan font-family="Cambria Math,Cambria Math_MSFontService,sans-serif" x="31.5103" y="0">→</tspan><tspan font-family="Cambria Math,Cambria Math_MSFontService,sans-serif" x="43.8477" y="0"> </tspan><tspan x="47.0154" y="0">Select Order</tspan></text><path d="M-6.67636 0.561332-23.6746 0.292935-23.6535-1.04023-6.65531-0.771835ZM-7.93585-4.1258 0 0-8.06215 3.8732Z" transform="matrix(1.00033 8.74514e-08 8.74228e-08 -1 144.172 493.5)"/><rect x="0" y="0" width="76.9748" height="32" stroke="#000000" stroke-width="1.33333" stroke-miterlimit="8" fill="#CCCCFF" transform="matrix(1.00033 0 -0 1 273.5 477.5)"/><text font-family="Calibri,Calibri_MSFontService,sans-serif" font-weight="400" font-size="16" transform="matrix(1 0 0 0.999673 284.356 498)">Decoder<tspan font-size="15" x="-36.5387" y="49.0161">Agg </tspan><tspan font-family="Cambria Math,Cambria Math_MSFontService,sans-serif" font-size="15" x="-11.0304" y="49.0161">→</tspan><tspan font-size="15" x="4.64142" y="49.0161">none Col Tab</tspan></text><path d="M0.666702 6.66666 0.666772 19.9639-0.666562 19.9639-0.666632 6.66667ZM-3.99996 8.00002 0 0 4.00004 7.99998Z" transform="matrix(1.00033 0 -0 1 312.5 509.5)"/><path d="M0.666702 6.66666 0.666772 19.9639-0.666562 19.9639-0.666632 6.66667ZM-3.99996 8.00002 0 0 4.00004 7.99998Z" transform="matrix(1.00033 0 -0 1 312.5 456.5)"/><text font-family="Calibri,Calibri_MSFontService,sans-serif" font-weight="400" font-size="15" transform="matrix(1 0 0 0.999673 260.83 449)">Col<tspan font-family="Cambria Math,Cambria Math_MSFontService,sans-serif" x="22.1739" y="0">→</tspan><tspan font-family="Cambria Math,Cambria Math_MSFontService,sans-serif" x="34.5113" y="0"> </tspan><tspan x="37.679" y="0">Horsepower</tspan></text><path d="M-6.68172 0.493515-14.4173 0.292794-14.3827-1.04009-6.64713-0.839369ZM-7.89355-4.20617 0 0-8.10106 3.79114Z" transform="matrix(1.00033 8.74514e-08 8.74228e-08 -1 235.905 494.5)"/><text font-family="Calibri,Calibri_MSFontService,sans-serif" font-weight="400" font-size="24" transform="matrix(1 0 0 0.999673 236.302 495)">…</text><rect x="0" y="0" width="77.9745" height="32" stroke="#000000" stroke-width="1.33333" stroke-miterlimit="8" fill="#CCCCFF" transform="matrix(1.00033 0 -0 1 376.5 477.5)"/><text font-family="Calibri,Calibri_MSFontService,sans-serif" font-weight="400" font-size="16" transform="matrix(1 0 0 0.999673 387.41 498)">Decoder<tspan font-size="15" x="-4.62906" y="49.0161">Col</tspan><tspan font-family="Cambria Math,Cambria Math_MSFontService,sans-serif" font-size="15" x="17.5449" y="49.0161">→</tspan><tspan font-family="Cambria Math,Cambria Math_MSFontService,sans-serif" font-size="15" x="29.8822" y="49.0161"> </tspan><tspan font-size="15" x="33.0499" y="49.0161">Horsepower</tspan></text><path d="M0.666702 6.66666 0.666772 19.9639-0.666562 19.9639-0.666632 6.66667ZM-3.99996 8.00002 0 0 4.00004 7.99998Z" transform="matrix(1.00033 0 -0 1 415.5 509.5)"/><path d="M0.666702 6.66666 0.666772 19.9639-0.666562 19.9639-0.666632 6.66667ZM-3.99996 8.00002 0 0 4.00004 7.99998Z" transform="matrix(1.00033 0 -0 1 415.5 456.5)"/><text font-family="Calibri,Calibri_MSFontService,sans-serif" font-weight="400" font-size="15" transform="matrix(1 0 0 0.999673 386.304 449)">Tab<tspan font-family="Cambria Math,Cambria Math_MSFontService,sans-serif" x="25.1749" y="0">→</tspan><tspan font-family="Cambria Math,Cambria Math_MSFontService,sans-serif" x="37.5123" y="0"> </tspan><tspan font-size="14" x="40.68" y="0">CARS_DATA</tspan></text><path d="M-6.67636 0.561332-23.6746 0.292935-23.6535-1.04023-6.65531-0.771835ZM-7.93585-4.1258 0 0-8.06215 3.8732Z" transform="matrix(1.00033 8.74514e-08 8.74228e-08 -1 375.172 494.5)"/><path d="M-6.66667 0.666648-37.0608 0.666562-37.0608-0.666772-6.66666-0.666686ZM-7.99999-4.00002 0 0-8.00001 3.99998Z" transform="matrix(1.00033 8.74514e-08 8.74228e-08 -1 71.5729 467.5)"/><rect x="0" y="0" width="108" height="20.9932" stroke="#000000" stroke-width="1.33333" stroke-miterlimit="8" transform="matrix(-4.37114e-08 1 -1.00033 -4.37257e-08 25.5 434.5)"/><text fill="#FFFFFF" font-family="Calibri,Calibri_MSFontService,sans-serif" font-weight="700" font-size="14" transform="matrix(6.12323e-17 0.999345 -1.00033 6.12123e-17 9.86355 460)">Attention</text><path d="M-6.68172 0.493515-14.4173 0.292794-14.3827-1.04009-6.64713-0.839369ZM-7.89355-4.20617 0 0-8.10106 3.79114Z" transform="matrix(1.00033 8.74514e-08 8.74228e-08 -1 269.905 494.5)"/><path d="M-6.66667 0.666633-20.5679 0.666562-20.5679-0.666772-6.66666-0.666701ZM-7.99998-4.00004 0 0-8.00002 3.99996Z" transform="matrix(1.00033 8.74514e-08 8.74228e-08 -1 175.075 467.5)"/><path d="M-6.66667 0.666633-20.5679 0.666562-20.5679-0.666772-6.66666-0.666701ZM-7.99998-4.00004 0 0-8.00002 3.99996Z" transform="matrix(1.00033 8.74514e-08 8.74228e-08 -1 305.075 467.5)"/><path d="M-6.66667 0.666633-20.5679 0.666562-20.5679-0.666772-6.66666-0.666701ZM-7.99998-4.00004 0 0-8.00002 3.99996Z" transform="matrix(1.00033 8.74514e-08 8.74228e-08 -1 408.075 467.5)"/><rect x="0" y="0" width="76.9748" height="29" stroke="#000000" stroke-width="1.33333" stroke-miterlimit="8" fill="#FFF2CC" transform="matrix(1.00033 0 -0 1 2.50003 582.5)"/><text font-family="Calibri,Calibri_MSFontService,sans-serif" font-weight="400" font-size="16" transform="matrix(1 0 0 0.999673 14.0753 602)">Encoder</text><rect x="0" y="0" width="76.9748" height="29" stroke="#000000" stroke-width="1.33333" stroke-miterlimit="8" fill="#FFF2CC" transform="matrix(1.00033 0 -0 1 103.5 582.5)"/><text font-family="Calibri,Calibri_MSFontService,sans-serif" font-weight="400" font-size="16" transform="matrix(1 0 0 0.999673 115.109 602)">Encoder</text><rect x="0" y="0" width="76.9748" height="29" stroke="#000000" stroke-width="1.33333" stroke-miterlimit="8" fill="#FFF2CC" transform="matrix(1.00033 0 -0 1 234.5 582.5)"/><text font-family="Calibri,Calibri_MSFontService,sans-serif" font-weight="400" font-size="16" transform="matrix(1 0 0 0.999673 245.612 602)">Encoder</text><path d="M-6.66667 0.66663-12.1802 0.666599-12.1802-0.666735-6.66666-0.666704ZM-7.99998-4.00004 0 0-8.00002 3.99996ZM-10.8468 3.99994-18.8468-0.000104987-10.8468-4.00006Z" transform="matrix(1.00033 8.74514e-08 8.74228e-08 -1 199.353 597.5)"/><text font-family="Calibri,Calibri_MSFontService,sans-serif" font-weight="400" font-size="24" transform="matrix(1 0 0 0.999673 198.713 597)">…</text><path d="M0.0856706-0.492606 1.59934-0.229359 3.1509 0.580152 3.90314 1.19562 3.2699 1.96957 2.55744 1.38665 2.64278 1.44296 1.20575 0.693211 1.35136 0.742524-0.0856706 0.492606ZM6.07622 3.46536 7.36211 5.4248 8.1956 6.89333 7.32591 7.38694 6.50038 5.93244 6.5172 5.95997 5.24018 4.01402ZM9.48894 9.66044 11.0307 13.3274 11.0527 13.4018 10.0936 13.685 10.0795 13.6372 10.0981 13.6894 8.5671 10.048ZM11.9022 16.2791 12.9814 19.9347 13.0278 20.1608 12.0482 20.3617 12.0061 20.1564 12.0164 20.1975 10.9431 16.5622ZM13.6307 23.0996 14.4344 27.018 13.4548 27.2189 12.6511 23.3005ZM14.8402 30.0276 15.348 33.9952 14.3561 34.1222 13.8483 30.1546ZM15.5673 37.0288 15.7222 41.0258 14.723 41.0645 14.568 37.0675ZM15.8384 44.0236 15.9933 48.0206 14.9941 48.0593 14.8391 44.0623ZM16.1095 51.0183 16.1195 51.2763 16.1158 51.2322 16.5909 54.9437 15.599 55.0707 15.1211 51.3372 15.1103 51.057ZM16.9718 57.9194 17.1155 59.0421 17.1094 59.0052 17.6857 61.8148 16.7061 62.0157 16.126 59.1877 15.9799 58.0464ZM18.2885 64.7536 18.6089 66.3153 18.5982 66.2729 19.2855 68.5785 18.3271 68.8641 17.6337 66.5376 17.3089 64.9545ZM20.1424 71.4535 20.5351 72.7708 20.5176 72.7217 21.5255 75.1459 20.6021 75.5298 19.5842 73.0815 19.1841 71.7391ZM22.6771 77.9161 22.8294 78.2823 22.8048 78.2315 24.0543 80.4807 23.9747 80.3739 24.6951 81.1104 23.9803 81.8097 23.2128 81.0251 21.9168 78.6924 21.7537 78.3ZM26.5934 78.3889 30.5525 86.4092 21.7608 84.7643Z" transform="matrix(1.00033 0 -0 1 115.5 452.5)"/><path d="M-6.66667 0.666637-16.9977 0.666591-16.9977-0.666742-6.66666-0.666696ZM-7.99998-4.00004 0 0-8.00002 3.99996ZM-15.6644 3.99993-23.6644-0.000104987-15.6643-4.00007Z" transform="matrix(1.00033 8.74514e-08 8.74228e-08 -1 103.172 597.5)"/><path d="M0.096996-0.659573 2.29388-0.336502 4.55869 0.529457 6.6069 1.91695 8.4374 3.68208 9.94211 5.71016 11.1164 8.05877 11.9026 10.5482 12.1594 13.0527 12.142 12.9551 12.7668 15.3918 12.651 15.153 14.4629 17.5272 14.3551 17.4157 17.1042 19.6649 16.9963 19.5929 20.6201 21.5298 20.5519 21.4981 24.8005 23.1851 24.7299 23.1615 29.5408 24.4736 29.4555 24.4562 33.1272 24.9572 32.9469 26.2783 29.232 25.7714 24.3431 24.4381 20.0248 22.7235 16.3103 20.7381 13.4503 18.3981 11.5089 15.8542 10.8381 13.2382 10.5831 10.752 10.6106 10.8848 9.86084 8.51053 9.90028 8.60792 8.77564 6.35866 8.83653 6.45775 7.3995 4.52088 7.47214 4.60355 5.72272 2.9166 5.81157 2.98865 3.87471 1.67658 4.01052 1.74733 1.88621 0.935099 2.02731 0.97197-0.096996 0.659573ZM32.0838 21.5105 39.6745 26.2414 31.3354 29.4755Z" transform="matrix(-4.37114e-08 -1 -1.00033 4.37257e-08 40.7189 582.146)"/><path d="M0.279372-0.605306 1.24151-0.161241 2.19552 1.0863 3.05341 2.86809 3.88763 5.24239 4.64722 8.21745 5.40235 11.6156 6.09302 15.5084 6.78345 19.7765 7.91114 29.4246 8.78768 40.1935 9.35106 51.7115 9.53868 63.5936 9.53765 63.5656 10.2249 75.4367 10.2168 75.3645 12.1536 86.8607 12.1374 86.7888 15.1989 97.5353 15.1748 97.4656 19.111 107.087 19.085 107.031 21.3343 111.343 21.3116 111.303 23.6858 115.176 23.6484 115.122 26.2101 118.495 26.1661 118.443 28.8527 121.317 28.8015 121.268 31.5506 123.642 31.3885 123.539 33.6264 124.546 33.0791 125.762 30.7526 124.715 27.903 122.254 25.1688 119.329 22.5664 115.901 20.1628 111.98 17.8886 107.621 13.9267 97.9362 10.845 87.1187 8.89592 75.5501 8.20573 63.6287 8.01807 51.7436 8.01878 51.7656 7.45647 40.2694 7.45787 40.2909 6.58316 29.5444 6.58547 29.5677 5.46083 19.9459 5.46488 19.975 4.77761 15.7263 4.7793 15.7363 4.09203 11.8626 4.09765 11.8908 3.3479 8.51688 3.35274 8.53718 2.60299 5.60064 2.61996 5.65671 1.80773 3.34497 1.83603 3.41319 1.0238 1.72624 1.0949 1.842 0.282662 0.779844 0.532862 0.980183-0.279372 0.605306ZM33.3583 120.938 39.6745 127.271 30.8185 128.524Z" transform="matrix(-4.37114e-08 -1 -1.00033 4.37257e-08 141.752 582.146)"/><path d="M0.234082-0.624219 0.910372-0.370611 1.50888 0.398901 2.56782 2.64915 3.46219 6.22661 4.40573 10.9443 5.28392 16.8408 6.16083 23.7307 6.91187 31.5541 7.66227 40.2462 8.35014 49.6263 8.97536 59.7547 9.53807 70.3837 9.97569 81.5118 10.3508 93.0141 10.6008 104.83 10.8508 128.888 10.8506 128.876 11.5378 152.931 11.5368 152.907 12.2865 164.654 12.2847 164.631 13.4093 176.127 13.4079 176.114 14.72 187.236 14.7175 187.217 16.2795 197.901 16.276 197.879 18.0879 207.939 18.084 207.919 20.0833 217.353 20.0784 217.332 22.2027 225.954 22.1947 225.924 24.5064 233.734 24.4955 233.701 26.9322 240.573 26.915 240.53 29.4766 246.403 29.4472 246.343 32.0714 251.029 31.968 250.891 34.5894 253.59 33.6329 254.519 30.9506 251.757 28.2677 246.966 25.6834 241.041 23.2329 234.13 20.9118 226.288 18.7812 217.64 16.7775 208.185 14.9618 198.105 13.3969 187.401 12.083 176.264 10.9566 164.75 10.2054 152.981 9.5176 128.908 9.26761 104.848 9.26773 104.855 9.01781 93.0461 9.01801 93.0537 8.64314 81.5575 8.6433 81.562 8.20594 70.4406 8.20636 70.4497 7.64404 59.8281 7.64438 59.834 7.01958 49.7123 7.0201 49.72 6.33283 40.3481 6.33351 40.3566 5.58376 31.672 5.58434 31.6783 4.83458 23.8684 4.83687 23.8889 3.96215 17.0161 3.96409 17.0302 3.08938 11.1571 3.09505 11.1896 2.15786 6.50366 2.16482 6.5346 1.2901 3.03575 1.33365 3.15792 0.33398 1.03362 0.410958 1.15905-0.0263986 0.596732 0.265754 0.811658-0.234082 0.624219ZM35.2024 249.982 39.6745 257.728 30.7945 256.658Z" transform="matrix(-4.37114e-08 -1 -1.00033 4.37257e-08 272.255 582.146)"/><text font-family="Calibri,Calibri_MSFontService,sans-serif" font-weight="400" font-size="16" transform="matrix(1 0 0 0.999673 23.0018 641)">What</text><path d="M0.817182 6.64989 0.992061 14.3849-0.340932 14.4151-0.515811 6.68003ZM-3.81816 8.08837 0 0 4.1798 7.90754Z" transform="matrix(1.00033 0 -0 1 41.5 611.5)"/><text font-family="Calibri,Calibri_MSFontService,sans-serif" font-weight="400" font-size="16" transform="matrix(1 0 0 0.999673 136.715 641)">is</text><path d="M0.666715 6.66666 0.666772 14.4-0.666562 14.4-0.666618 6.66667ZM-3.99994 8.00003 0 0 4.00006 7.99997Z" transform="matrix(1.00033 0 -0 1 142.5 613.5)"/><text font-family="Calibri,Calibri_MSFontService,sans-serif" font-weight="400" font-size="16" transform="matrix(1 0 0 0.999673 259.74 641)">max</text><path d="M0.666715 6.66666 0.666772 14.4-0.666562 14.4-0.666618 6.66667ZM-3.99994 8.00003 0 0 4.00006 7.99997Z" transform="matrix(1.00033 0 -0 1 273.5 613.5)"/><rect x="0" y="0" width="76.9748" height="29" stroke="#000000" stroke-width="1.33333" stroke-miterlimit="8" fill="#FFF2CC" transform="matrix(1.00033 0 -0 1 333.5 582.5)"/><text font-family="Calibri,Calibri_MSFontService,sans-serif" font-weight="400" font-size="16" transform="matrix(1 0 0 0.999673 344.988 602)">Encoder</text><path d="M-6.66667 0.666635-15.341 0.666593-15.341-0.66674-6.66666-0.666698ZM-7.99998-4.00004 0 0-8.00002 3.99996ZM-14.0077 3.99993-22.0077-0.000104987-14.0076-4.00007Z" transform="matrix(1.00033 8.74514e-08 8.74228e-08 -1 333.515 597.5)"/><text font-family="Calibri,Calibri_MSFontService,sans-serif" font-weight="400" font-size="16" transform="matrix(1 0 0 0.999673 334.092 641)">horsepower</text><path d="M0.666715 6.66666 0.666772 14.4-0.666562 14.4-0.666618 6.66667ZM-3.99994 8.00003 0 0 4.00006 7.99997Z" transform="matrix(1.00033 0 -0 1 367.5 613.5)"/><path d="M0.227829-0.626529 1.08422-0.315114 1.86968 0.627433 2.60969 2.04019 3.25512 3.78284 3.95449 6.0081 4.58725 8.66572 5.2147 11.7402 5.9055 15.257 6.47012 19.0839 7.09601 23.34 8.2849 32.8511 9.41095 43.7362 10.4115 55.7427 11.3492 68.8078 12.2243 82.8101 12.9744 97.5612 13.6619 112.938 14.162 128.877 14.5371 145.254 14.8495 178.56 14.8494 178.555 15.4117 211.857 15.4112 211.84 16.0985 228.147 16.098 228.136 17.0352 244.068 17.0343 244.056 18.2214 259.426 18.2208 259.419 19.5329 274.226 19.5313 274.211 21.0933 288.144 21.0916 288.13 22.841 301.188 22.8394 301.177 24.6513 313.173 24.6478 313.152 26.6472 324.023 26.6421 323.998 28.7664 333.495 28.7625 333.479 29.8247 337.728 29.8173 337.701 30.942 341.512 30.9373 341.497 32.0619 344.995 32.0488 344.958 33.2359 348.02 33.2271 347.998 34.3517 350.622 34.2505 350.458 35.4765 351.924 34.4534 352.78 33.1647 351.238 31.997 348.513 30.7985 345.422 29.6654 341.897 28.5346 338.065 27.467 333.794 25.3381 324.277 23.3345 313.382 21.5202 301.37 19.7691 288.299 18.2054 274.352 16.8923 259.533 15.7045 244.153 14.7666 228.209 14.0787 211.888 13.5162 178.575 13.2038 145.271 13.204 145.28 12.8291 128.911 12.8292 128.916 12.3294 112.984 12.3297 112.993 11.6425 97.6228 11.6427 97.6269 10.8929 82.8817 10.8933 82.8894 10.0186 68.894 10.019 68.9002 9.08185 55.8419 9.08244 55.8496 8.08277 43.8535 8.08401 43.8667 6.95937 32.9953 6.96098 33.0094 5.77387 23.5125 5.77582 23.5268 5.15107 19.2785 4.58875 15.4673 4.59411 15.4985 3.90684 11.9996 3.9078 12.0044 3.28301 8.94292 3.28767 8.96403 2.66288 6.33989 2.67542 6.38536 1.98814 4.19857 1.99897 4.23023 1.37418 2.54329 1.40879 2.62108 0.721516 1.30901 0.799923 1.42646 0.175127 0.676708 0.459446 0.876447-0.227829 0.626529ZM36.8541 348.583 39.6745 357.071 31.1919 354.234Z" transform="matrix(-4.37114e-08 -1 -1.00033 4.37257e-08 371.631 582.146)"/><path d="M-6.66667 0.666634-14.6729 0.666594-14.6729-0.666739-6.66666-0.666699ZM-7.99998-4.00004 0 0-8.00002 3.99996ZM-13.3395 3.99993-21.3395-0.000104987-13.3395-4.00007Z" transform="matrix(1.00033 8.74514e-08 8.74228e-08 -1 233.847 597.5)"/><text font-family="Calibri,Calibri_MSFontService,sans-serif" font-weight="400" font-size="24" transform="matrix(1 0 0 0.999673 205.7 639)">…</text><rect x="0" y="0" width="76.9747" height="29" stroke="#000000" stroke-width="1.33333" stroke-miterlimit="8" fill="#FFF2CC" transform="matrix(1.00033 0 -0 1 432.5 582.5)"/><text font-family="Calibri,Calibri_MSFontService,sans-serif" font-weight="400" font-size="16" transform="matrix(1 0 0 0.999673 443.875 602)">Encoder</text><path d="M-6.66667 0.666635-15.341 0.666593-15.341-0.66674-6.66666-0.666698ZM-7.99998-4.00004 0 0-8.00002 3.99996ZM-14.0077 3.99993-22.0077-0.000104987-14.0076-4.00007Z" transform="matrix(1.00033 8.74514e-08 8.74228e-08 -1 432.515 597.5)"/><path d="M0.666715 6.66666 0.666772 14.4-0.666562 14.4-0.666618 6.66667ZM-3.99994 8.00003 0 0 4.00006 7.99997Z" transform="matrix(1.00033 0 -0 1 470.5 611.5)"/><text font-family="Calibri,Calibri_MSFontService,sans-serif" font-weight="400" font-size="16" transform="matrix(1 0 0 0.999673 466.876 641)">?</text><path d="M0.0856706-0.492606 1.59934-0.229359 3.1509 0.580152 3.90314 1.19562 3.2699 1.96957 2.55744 1.38665 2.64278 1.44296 1.20575 0.693211 1.35136 0.742524-0.0856706 0.492606ZM6.07622 3.46536 7.36211 5.4248 8.1956 6.89333 7.32591 7.38694 6.50038 5.93244 6.5172 5.95997 5.24018 4.01402ZM9.48894 9.66044 11.0307 13.3274 11.0527 13.4018 10.0936 13.685 10.0795 13.6372 10.0981 13.6894 8.5671 10.048ZM11.9022 16.2791 12.9814 19.9347 13.0278 20.1608 12.0482 20.3617 12.0061 20.1564 12.0164 20.1975 10.9431 16.5622ZM13.6307 23.0996 14.4344 27.018 13.4548 27.2189 12.6511 23.3005ZM14.8402 30.0276 15.348 33.9952 14.3561 34.1222 13.8483 30.1546ZM15.5673 37.0288 15.7222 41.0258 14.723 41.0645 14.568 37.0675ZM15.8384 44.0236 15.9933 48.0206 14.9941 48.0593 14.8391 44.0623ZM16.1095 51.0183 16.1195 51.2763 16.1158 51.2322 16.5909 54.9437 15.599 55.0707 15.1211 51.3372 15.1103 51.057ZM16.9718 57.9194 17.1155 59.0421 17.1094 59.0052 17.6857 61.8148 16.7061 62.0157 16.126 59.1877 15.9799 58.0464ZM18.2885 64.7536 18.6089 66.3153 18.5982 66.2729 19.2855 68.5785 18.3271 68.8641 17.6337 66.5376 17.3089 64.9545ZM20.1424 71.4535 20.5351 72.7708 20.5176 72.7217 21.5255 75.1459 20.6021 75.5298 19.5842 73.0815 19.1841 71.7391ZM22.6771 77.9161 22.8294 78.2823 22.8048 78.2315 24.0543 80.4807 23.9747 80.3739 24.6951 81.1104 23.9803 81.8097 23.2128 81.0251 21.9168 78.6924 21.7537 78.3ZM26.5934 78.3889 30.5525 86.4092 21.7608 84.7643Z" transform="matrix(1.00033 0 -0 1 348.5 452.5)"/><path d="M0.239319-0.62223 1.23052-0.241 2.13139 0.960161 2.99042 2.67821 3.75991 4.92258 4.58211 7.76864 5.33871 11.1103 6.09191 15.0646 6.84364 19.5123 7.59551 24.3995 8.2839 29.8441 9.03434 35.7225 9.72283 42.0441 10.3481 48.7345 11.0356 55.8595 11.6609 63.3627 12.2861 71.2403 13.4112 87.8676 14.4113 105.744 15.2862 124.555 16.0987 144.242 16.6612 164.616 17.1612 185.491 17.5361 227.982 18.0359 270.466 18.0357 270.454 18.6605 291.322 18.6602 291.315 19.4725 311.684 19.472 311.674 20.5342 331.293 20.5338 331.287 21.721 350.156 21.7203 350.146 23.0948 367.953 23.0939 367.942 24.6559 384.624 24.6553 384.618 25.4675 392.49 25.4665 392.481 26.3412 399.916 26.3408 399.913 27.2155 407.035 27.2149 407.031 28.0896 413.779 28.0878 413.766 29.025 420.013 29.024 420.007 29.9612 425.88 29.9586 425.865 30.9582 431.301 30.956 431.289 31.9556 436.225 31.9521 436.208 32.9518 440.582 32.9481 440.566 33.9477 444.503 33.9364 444.463 34.9986 447.775 34.9533 447.667 36.309 450.235 35.1299 450.858 33.7468 448.238 32.6605 444.851 31.6538 440.887 30.6505 436.497 29.648 431.548 28.6458 426.098 27.7069 420.214 26.7682 413.957 25.8924 407.2 25.0172 400.074 24.1417 392.632 23.3287 384.752 21.7659 368.061 20.3905 350.244 19.203 331.368 18.1404 311.742 17.3278 291.365 16.7028 270.488 16.2028 227.994 15.828 185.508 15.8281 185.518 15.3283 164.65 15.3283 164.652 14.766 144.284 14.7663 144.293 13.9541 124.612 13.9543 124.615 13.0795 105.809 13.0799 105.815 12.0802 87.9459 12.0807 87.9537 10.956 71.3342 10.9566 71.3419 10.3318 63.4695 10.332 63.4721 9.70724 55.9745 9.70802 55.9832 9.02055 48.8585 8.39576 42.1732 8.39678 42.1834 7.70951 35.873 7.71096 35.8852 6.9611 30.0113 6.27383 24.5756 6.27631 24.5933 5.52656 19.7199 5.52813 19.7297 4.77838 15.2936 4.78083 15.3073 4.03107 11.3711 4.03576 11.3935 3.286 8.08212 3.29573 8.11993 2.4835 5.30835 2.49335 5.33954 1.74359 3.15275 1.77794 3.23468 0.965703 1.61021 1.02866 1.71207 0.278901 0.712398 0.572914 0.934628-0.239319 0.62223ZM38.1485 447.1 39.6745 455.913 31.7084 451.846Z" transform="matrix(-4.37114e-08 -1 -1.00033 4.37257e-08 470.519 582.146)"/><rect x="0" y="0" width="506.834" height="235" fill="#E8EEF8" transform="matrix(1.00033 0 -0 1 1.00001 0)"/><text font-family="Calibri,Calibri_MSFontService,sans-serif" font-weight="400" font-size="19" transform="matrix(1 0 0 0.999673 380.688 20)">Grammar Rule<tspan font-family="Courier New,Courier New_MSFontService,sans-serif" font-size="13" x="-367.743" y="17.0056">Start</tspan><tspan font-family="Cambria Math,Cambria Math_MSFontService,sans-serif" font-size="16" x="-322.728" y="17.0056">→</tspan><tspan font-family="Courier New,Courier New_MSFontService,sans-serif" font-size="13" x="-301.721" y="17.0056">Root</tspan><tspan font-family="Cambria Math,Cambria Math_MSFontService,sans-serif" font-size="13" x="-268.21" y="17.0056">|</tspan><tspan font-family="Courier New,Courier New_MSFontService,sans-serif" font-size="13" x="-260.541" y="17.0056">intersect</tspan><tspan font-family="Courier New,Courier New_MSFontService,sans-serif" font-size="13" x="-190.351" y="17.0056">Root</tspan><tspan font-family="Courier New,Courier New_MSFontService,sans-serif" font-size="13" x="-156.84" y="17.0056">Root</tspan><tspan font-family="Cambria Math,Cambria Math_MSFontService,sans-serif" font-size="13" x="-123.329" y="17.0056">|</tspan><tspan font-family="Courier New,Courier New_MSFontService,sans-serif" font-size="13" x="-115.66" y="17.0056">union</tspan><tspan font-family="Courier New,Courier New_MSFontService,sans-serif" font-size="13" x="-74.8135" y="17.0056">Root</tspan><tspan font-family="Courier New,Courier New_MSFontService,sans-serif" font-size="13" x="-41.3025" y="17.0056">Root</tspan><tspan font-family="Cambria Math,Cambria Math_MSFontService,sans-serif" font-size="13" x="-7.79153" y="17.0056">|</tspan><tspan font-family="Courier New,Courier New_MSFontService,sans-serif" font-size="13" x="-0.122375" y="17.0056">except</tspan><tspan font-family="Courier New,Courier New_MSFontService,sans-serif" font-size="13" x="48.0601" y="17.0056">Root</tspan><tspan font-family="Courier New,Courier New_MSFontService,sans-serif" font-size="13" x="81.571" y="17.0056">Root</tspan><tspan font-family="Courier New,Courier New_MSFontService,sans-serif" font-size="13" x="-367.743" y="35.0115">Root</tspan><tspan font-family="Cambria Math,Cambria Math_MSFontService,sans-serif" font-size="16" x="-322.561" y="35.0115">→</tspan><tspan font-family="Courier New,Courier New_MSFontService,sans-serif" font-size="13" x="-301.554" y="35.0115">Select</tspan><tspan font-family="Cambria Math,Cambria Math_MSFontService,sans-serif" font-size="13" x="-253.372" y="35.0115">|</tspan><tspan font-family="Courier New,Courier New_MSFontService,sans-serif" font-size="13" x="-245.703" y="35.0115">Select</tspan><tspan font-family="Courier New,Courier New_MSFontService,sans-serif" font-size="13" x="-197.52" y="35.0115">Filter</tspan><tspan font-family="Cambria Math,Cambria Math_MSFontService,sans-serif" font-size="13" x="-149.338" y="35.0115">|</tspan><tspan font-family="Courier New,Courier New_MSFontService,sans-serif" font-size="13" x="-141.669" y="35.0115">Select</tspan><tspan font-family="Courier New,Courier New_MSFontService,sans-serif" font-size="13" x="-93.4863" y="35.0115">Order</tspan><tspan font-family="Cambria Math,Cambria Math_MSFontService,sans-serif" font-size="13" x="-52.6396" y="35.0115">|</tspan><tspan font-family="Courier New,Courier New_MSFontService,sans-serif" font-size="13" x="-44.9704" y="35.0115">Select</tspan><tspan font-family="Courier New,Courier New_MSFontService,sans-serif" font-size="13" x="3.21207" y="35.0115">Filter</tspan><tspan font-family="Courier New,Courier New_MSFontService,sans-serif" font-size="13" x="51.3945" y="35.0115">Order</tspan><tspan font-family="Courier New,Courier New_MSFontService,sans-serif" font-size="13" x="-367.743" y="54.0177">Select</tspan><tspan font-family="Cambria Math,Cambria Math_MSFontService,sans-serif" font-size="16" x="-322.728" y="54.0177">→</tspan><tspan font-family="Courier New,Courier New_MSFontService,sans-serif" font-size="13" x="-301.721" y="54.0177">Agg</tspan><tspan font-family="Cambria Math,Cambria Math_MSFontService,sans-serif" font-size="13" x="-275.546" y="54.0177">|</tspan><tspan font-family="Courier New,Courier New_MSFontService,sans-serif" font-size="13" x="-267.877" y="54.0177">Agg</tspan><tspan font-family="Courier New,Courier New_MSFontService,sans-serif" font-size="13" x="-241.701" y="54.0177">Agg</tspan><tspan font-family="Cambria Math,Cambria Math_MSFontService,sans-serif" font-size="13" x="-215.526" y="54.0177">|</tspan><tspan font-family="Courier New,Courier New_MSFontService,sans-serif" font-size="13" x="-207.857" y="54.0177">Agg</tspan><tspan font-family="Courier New,Courier New_MSFontService,sans-serif" font-size="13" x="-181.682" y="54.0177">Agg</tspan><tspan font-family="Cambria Math,Cambria Math_MSFontService,sans-serif" font-size="13" x="-155.507" y="54.0177">⋯</tspan><tspan font-family="Courier New,Courier New_MSFontService,sans-serif" font-size="13" x="-140.502" y="54.0177">Agg </tspan><tspan font-family="Courier New,Courier New_MSFontService,sans-serif" font-size="13" x="-367.743" y="73.0239">Filter</tspan><tspan font-family="Cambria Math,Cambria Math_MSFontService,sans-serif" font-size="16" x="-322.728" y="73.0239">→</tspan><tspan font-family="Courier New,Courier New_MSFontService,sans-serif" font-size="13" x="-301.721" y="73.0239">and</tspan><tspan font-family="Courier New,Courier New_MSFontService,sans-serif" font-size="13" x="-275.546" y="73.0239">Filter</tspan><tspan font-family="Courier New,Courier New_MSFontService,sans-serif" font-size="13" x="-227.363" y="73.0239">Filter</tspan><tspan font-family="Cambria Math,Cambria Math_MSFontService,sans-serif" font-size="13" x="-179.181" y="73.0239">|</tspan><tspan font-family="Courier New,Courier New_MSFontService,sans-serif" font-size="13" x="-171.512" y="73.0239">or</tspan><tspan font-family="Courier New,Courier New_MSFontService,sans-serif" font-size="13" x="-152.672" y="73.0239">Filter</tspan><tspan font-family="Courier New,Courier New_MSFontService,sans-serif" font-size="13" x="-104.49" y="73.0239">Filter</tspan><tspan font-family="Cambria Math,Cambria Math_MSFontService,sans-serif" font-size="13" x="-56.3074" y="73.0239">|</tspan><tspan font-family="Courier New,Courier New_MSFontService,sans-serif" font-size="13" x="-48.6382" y="73.0239">&gt;</tspan><tspan font-family="Courier New,Courier New_MSFontService,sans-serif" font-size="13" x="-37.1345" y="73.0239">Agg</tspan><tspan font-family="Cambria Math,Cambria Math_MSFontService,sans-serif" font-size="13" x="-10.9593" y="73.0239">|</tspan><tspan font-family="Courier New,Courier New_MSFontService,sans-serif" font-size="13" x="-3.29007" y="73.0239">&gt;</tspan><tspan font-family="Courier New,Courier New_MSFontService,sans-serif" font-size="13" x="8.21368" y="73.0239">Agg</tspan><tspan font-family="Courier New,Courier New_MSFontService,sans-serif" font-size="13" x="34.3889" y="73.0239">Root</tspan><tspan font-family="Cambria Math,Cambria Math_MSFontService,sans-serif" font-size="13" x="-301.721" y="89.0292">|</tspan><tspan font-family="Courier New,Courier New_MSFontService,sans-serif" font-size="13" x="-294.052" y="89.0292">&lt;</tspan><tspan font-family="Courier New,Courier New_MSFontService,sans-serif" font-size="13" x="-282.548" y="89.0292">Agg</tspan><tspan font-family="Cambria Math,Cambria Math_MSFontService,sans-serif" font-size="13" x="-256.373" y="89.0292">|</tspan><tspan font-family="Courier New,Courier New_MSFontService,sans-serif" font-size="13" x="-248.704" y="89.0292">&lt;</tspan><tspan font-family="Courier New,Courier New_MSFontService,sans-serif" font-size="13" x="-237.2" y="89.0292">Agg</tspan><tspan font-family="Courier New,Courier New_MSFontService,sans-serif" font-size="13" x="-211.025" y="89.0292">Root</tspan><tspan font-family="Cambria Math,Cambria Math_MSFontService,sans-serif" font-size="13" x="-177.514" y="89.0292">|</tspan><tspan font-family="Cambria Math,Cambria Math_MSFontService,sans-serif" font-size="13" x="-169.845" y="89.0292">≥</tspan><tspan font-family="Courier New,Courier New_MSFontService,sans-serif" font-size="13" x="-156.34" y="89.0292">Agg</tspan><tspan font-family="Cambria Math,Cambria Math_MSFontService,sans-serif" font-size="13" x="-130.165" y="89.0292">|</tspan><tspan font-family="Cambria Math,Cambria Math_MSFontService,sans-serif" font-size="13" x="-122.496" y="89.0292">≥</tspan><tspan font-family="Courier New,Courier New_MSFontService,sans-serif" font-size="13" x="-108.991" y="89.0292">Agg</tspan><tspan font-family="Courier New,Courier New_MSFontService,sans-serif" font-size="13" x="-82.8161" y="89.0292">Root</tspan><tspan font-family="Cambria Math,Cambria Math_MSFontService,sans-serif" font-size="13" x="-49.3051" y="89.0292">|</tspan><tspan font-family="Cambria Math,Cambria Math_MSFontService,sans-serif" font-size="13" x="-41.636" y="89.0292">≤</tspan><tspan font-family="Courier New,Courier New_MSFontService,sans-serif" font-size="13" x="-28.1315" y="89.0292">Agg</tspan><tspan font-family="Cambria Math,Cambria Math_MSFontService,sans-serif" font-size="13" x="-1.9563" y="89.0292">|</tspan><tspan font-family="Cambria Math,Cambria Math_MSFontService,sans-serif" font-size="13" x="5.71286" y="89.0292">≤</tspan><tspan font-family="Courier New,Courier New_MSFontService,sans-serif" font-size="13" x="19.2173" y="89.0292">Agg</tspan><tspan font-family="Courier New,Courier New_MSFontService,sans-serif" font-size="13" x="45.3925" y="89.0292">Root</tspan><tspan font-family="Cambria Math,Cambria Math_MSFontService,sans-serif" font-size="13" x="-301.721" y="105.034">|</tspan><tspan font-family="Courier New,Courier New_MSFontService,sans-serif" font-size="13" x="-294.052" y="105.034">=</tspan><tspan font-family="Courier New,Courier New_MSFontService,sans-serif" font-size="13" x="-282.548" y="105.034">Agg</tspan><tspan font-family="Cambria Math,Cambria Math_MSFontService,sans-serif" font-size="13" x="-256.373" y="105.034">|</tspan><tspan font-family="Courier New,Courier New_MSFontService,sans-serif" font-size="13" x="-248.704" y="105.034">=</tspan><tspan font-family="Courier New,Courier New_MSFontService,sans-serif" font-size="13" x="-237.2" y="105.034">Agg</tspan><tspan font-family="Courier New,Courier New_MSFontService,sans-serif" font-size="13" x="-211.025" y="105.034">Root</tspan><tspan font-family="Cambria Math,Cambria Math_MSFontService,sans-serif" font-size="13" x="-177.514" y="105.034">|</tspan><tspan font-family="Cambria Math,Cambria Math_MSFontService,sans-serif" font-size="13" x="-169.845" y="105.034">≠</tspan><tspan font-family="Courier New,Courier New_MSFontService,sans-serif" font-size="13" x="-156.34" y="105.034">Agg</tspan><tspan font-family="Cambria Math,Cambria Math_MSFontService,sans-serif" font-size="13" x="-130.165" y="105.034">|</tspan><tspan font-family="Cambria Math,Cambria Math_MSFontService,sans-serif" font-size="13" x="-122.496" y="105.034">≠</tspan><tspan font-family="Courier New,Courier New_MSFontService,sans-serif" font-size="13" x="-108.991" y="105.034">Agg</tspan><tspan font-family="Courier New,Courier New_MSFontService,sans-serif" font-size="13" x="-82.8161" y="105.034">Root</tspan><tspan font-family="Cambria Math,Cambria Math_MSFontService,sans-serif" font-size="13" x="-49.3051" y="105.034">|</tspan><tspan font-family="Courier New,Courier New_MSFontService,sans-serif" font-size="13" x="-41.636" y="105.034">between</tspan><tspan font-family="Courier New,Courier New_MSFontService,sans-serif" font-size="13" x="13.8822" y="105.034">Agg</tspan><tspan font-family="Cambria Math,Cambria Math_MSFontService,sans-serif" font-size="13" x="40.0574" y="105.034">|</tspan><tspan font-family="Courier New,Courier New_MSFontService,sans-serif" font-size="13" x="47.7266" y="105.034">like</tspan><tspan font-family="Courier New,Courier New_MSFontService,sans-serif" font-size="13" x="81.2376" y="105.034">Agg</tspan><tspan font-family="Cambria Math,Cambria Math_MSFontService,sans-serif" font-size="13" x="-301.721" y="121.04">|</tspan><tspan font-family="Courier New,Courier New_MSFontService,sans-serif" font-size="13" x="-294.052" y="121.04">not</tspan><tspan font-family="Courier New,Courier New_MSFontService,sans-serif" font-size="13" x="-267.877" y="121.04">like</tspan><tspan font-family="Courier New,Courier New_MSFontService,sans-serif" font-size="13" x="-234.366" y="121.04">Agg</tspan><tspan font-family="Cambria Math,Cambria Math_MSFontService,sans-serif" font-size="13" x="-208.19" y="121.04">|</tspan><tspan font-family="Courier New,Courier New_MSFontService,sans-serif" font-size="13" x="-200.521" y="121.04">in</tspan><tspan font-family="Courier New,Courier New_MSFontService,sans-serif" font-size="13" x="-181.682" y="121.04">Agg</tspan><tspan font-family="Courier New,Courier New_MSFontService,sans-serif" font-size="13" x="-155.507" y="121.04">Root</tspan><tspan font-family="Cambria Math,Cambria Math_MSFontService,sans-serif" font-size="13" x="-121.996" y="121.04">|</tspan><tspan font-family="Courier New,Courier New_MSFontService,sans-serif" font-size="13" x="-114.326" y="121.04">not</tspan><tspan font-family="Courier New,Courier New_MSFontService,sans-serif" font-size="13" x="-88.1512" y="121.04">in</tspan><tspan font-family="Courier New,Courier New_MSFontService,sans-serif" font-size="13" x="-69.3117" y="121.04">Agg</tspan><tspan font-family="Courier New,Courier New_MSFontService,sans-serif" font-size="13" x="-43.1364" y="121.04">Root</tspan><tspan font-family="Courier New,Courier New_MSFontService,sans-serif" font-size="13" x="-367.743" y="140.046">Order</tspan><tspan font-family="Cambria Math,Cambria Math_MSFontService,sans-serif" font-size="16" x="-322.728" y="140.046">→</tspan><tspan font-family="Courier New,Courier New_MSFontService,sans-serif" font-size="13" x="-301.721" y="140.046">asc</tspan><tspan font-family="Courier New,Courier New_MSFontService,sans-serif" font-size="13" x="-275.546" y="140.046">Agg</tspan><tspan font-family="Cambria Math,Cambria Math_MSFontService,sans-serif" font-size="13" x="-249.371" y="140.046">|</tspan><tspan font-family="Courier New,Courier New_MSFontService,sans-serif" font-size="13" x="-241.701" y="140.046">asc</tspan><tspan font-family="Courier New,Courier New_MSFontService,sans-serif" font-size="13" x="-215.526" y="140.046">limit</tspan><tspan font-family="Courier New,Courier New_MSFontService,sans-serif" font-size="13" x="-174.68" y="140.046">Agg</tspan><tspan font-family="Cambria Math,Cambria Math_MSFontService,sans-serif" font-size="13" x="-148.504" y="140.046">|</tspan><tspan font-family="Courier New,Courier New_MSFontService,sans-serif" font-size="13" x="-140.835" y="140.046">desc</tspan><tspan font-family="Courier New,Courier New_MSFontService,sans-serif" font-size="13" x="-107.324" y="140.046">Agg</tspan><tspan font-family="Cambria Math,Cambria Math_MSFontService,sans-serif" font-size="13" x="-81.1489" y="140.046">|</tspan><tspan font-family="Courier New,Courier New_MSFontService,sans-serif" font-size="13" x="-73.4797" y="140.046">desc</tspan><tspan font-family="Courier New,Courier New_MSFontService,sans-serif" font-size="13" x="-39.9688" y="140.046">limit</tspan><tspan font-family="Courier New,Courier New_MSFontService,sans-serif" font-size="13" x="0.87796" y="140.046">Agg</tspan><tspan font-family="Courier New,Courier New_MSFontService,sans-serif" font-size="13" x="-367.743" y="158.052">Agg</tspan><tspan font-family="Cambria Math,Cambria Math_MSFontService,sans-serif" font-size="16" x="-322.895" y="158.052">→</tspan><tspan font-family="Courier New,Courier New_MSFontService,sans-serif" font-size="13" x="-301.888" y="158.052">none</tspan><tspan font-family="Courier New,Courier New_MSFontService,sans-serif" font-size="13" x="-268.377" y="158.052">Col</tspan><tspan font-family="Courier New,Courier New_MSFontService,sans-serif" font-size="13" x="-242.202" y="158.052">Tab</tspan><tspan font-family="Cambria Math,Cambria Math_MSFontService,sans-serif" font-size="13" x="-216.026" y="158.052">|</tspan><tspan font-family="Courier New,Courier New_MSFontService,sans-serif" font-size="13" x="-208.357" y="158.052">max</tspan><tspan font-family="Courier New,Courier New_MSFontService,sans-serif" font-size="13" x="-182.182" y="158.052">Col</tspan><tspan font-family="Courier New,Courier New_MSFontService,sans-serif" font-size="13" x="-156.007" y="158.052">Tab</tspan><tspan font-family="Cambria Math,Cambria Math_MSFontService,sans-serif" font-size="13" x="-129.831" y="158.052">|</tspan><tspan font-family="Courier New,Courier New_MSFontService,sans-serif" font-size="13" x="-122.162" y="158.052">min</tspan><tspan font-family="Courier New,Courier New_MSFontService,sans-serif" font-size="13" x="-95.9871" y="158.052">Col</tspan><tspan font-family="Courier New,Courier New_MSFontService,sans-serif" font-size="13" x="-69.8119" y="158.052">Tab</tspan><tspan font-family="Cambria Math,Cambria Math_MSFontService,sans-serif" font-size="13" x="-301.721" y="175.057">|</tspan><tspan font-family="Courier New,Courier New_MSFontService,sans-serif" font-size="13" x="-294.052" y="175.057">count</tspan><tspan font-family="Courier New,Courier New_MSFontService,sans-serif" font-size="13" x="-253.205" y="175.057">Col</tspan><tspan font-family="Courier New,Courier New_MSFontService,sans-serif" font-size="13" x="-227.03" y="175.057">Tab</tspan><tspan font-family="Cambria Math,Cambria Math_MSFontService,sans-serif" font-size="13" x="-200.855" y="175.057">|</tspan><tspan font-family="Courier New,Courier New_MSFontService,sans-serif" font-size="13" x="-193.186" y="175.057">sum</tspan><tspan font-family="Courier New,Courier New_MSFontService,sans-serif" font-size="13" x="-167.01" y="175.057">Col</tspan><tspan font-family="Courier New,Courier New_MSFontService,sans-serif" font-size="13" x="-140.835" y="175.057">Tab</tspan><tspan font-family="Cambria Math,Cambria Math_MSFontService,sans-serif" font-size="13" x="-114.66" y="175.057">|</tspan><tspan font-family="Courier New,Courier New_MSFontService,sans-serif" font-size="13" x="-106.991" y="175.057">avg</tspan><tspan font-family="Courier New,Courier New_MSFontService,sans-serif" font-size="13" x="-80.8155" y="175.057">Col</tspan><tspan font-family="Courier New,Courier New_MSFontService,sans-serif" font-size="13" x="-54.6402" y="175.057">Tab</tspan><tspan font-family="Courier New,Courier New_MSFontService,sans-serif" font-size="13" x="-367.743" y="193.063">Col  </tspan><tspan font-family="Cambria Math,Cambria Math_MSFontService,sans-serif" font-size="16" x="-322.728" y="193.063">→</tspan><tspan font-family="Courier New,Courier New_MSFontService,sans-serif" font-size="13" x="-301.721" y="193.063">MakeId</tspan><tspan font-family="Cambria Math,Cambria Math_MSFontService,sans-serif" font-size="13" x="-253.539" y="193.063">|</tspan><tspan font-family="Courier New,Courier New_MSFontService,sans-serif" font-size="13" x="-245.869" y="193.063">Model</tspan><tspan font-family="Cambria Math,Cambria Math_MSFontService,sans-serif" font-size="13" x="-205.023" y="193.063">|</tspan><tspan font-family="Courier New,Courier New_MSFontService,sans-serif" font-size="13" x="-197.354" y="193.063">Make</tspan><tspan font-family="Cambria Math,Cambria Math_MSFontService,sans-serif" font-size="13" x="-163.843" y="193.063">|</tspan><tspan font-family="Courier New,Courier New_MSFontService,sans-serif" font-size="13" x="-156.173" y="193.063">Id</tspan><tspan font-family="Cambria Math,Cambria Math_MSFontService,sans-serif" font-size="13" x="-137.334" y="193.063">|</tspan><tspan font-family="Courier New,Courier New_MSFontService,sans-serif" font-size="13" x="-129.665" y="193.063">MPG</tspan><tspan font-family="Cambria Math,Cambria Math_MSFontService,sans-serif" font-size="13" x="-103.49" y="193.063">|</tspan><tspan font-family="Courier New,Courier New_MSFontService,sans-serif" font-size="13" x="-95.8204" y="193.063">Horsepower</tspan><tspan font-family="Courier New,Courier New_MSFontService,sans-serif" font-size="13" x="-367.743" y="212.069">Tab  </tspan><tspan font-family="Cambria Math,Cambria Math_MSFontService,sans-serif" font-size="16" x="-322.728" y="212.069">→</tspan><tspan font-family="Courier New,Courier New_MSFontService,sans-serif" font-size="13" x="-301.721" y="212.069">CARS_NAMES</tspan><tspan font-family="Cambria Math,Cambria Math_MSFontService,sans-serif" font-size="13" x="-224.196" y="212.069">|</tspan><tspan font-family="Courier New,Courier New_MSFontService,sans-serif" font-size="13" x="-216.527" y="212.069">CARS_DATA</tspan></text><rect x="0" y="0" width="33.9889" height="15" stroke="#8E699F" stroke-width="2" stroke-miterlimit="8" fill="#E1D5E7" transform="matrix(1.00033 0 -0 1 370 268)"/><rect x="0" y="0" width="33.9889" height="15" stroke="#8E699F" stroke-width="2" stroke-miterlimit="8" fill="#FFFFFF" transform="matrix(1.00033 0 -0 1 370 289)"/><text font-family="Calibri,Calibri_MSFontService,sans-serif" font-weight="400" font-size="15" transform="matrix(1 0 0 0.999673 413.04 281)">Nonterminal<tspan x="21.748" y="20.0066">Terminal</tspan></text></g></svg>