<svg width="742" height="295" xmlns="http://www.w3.org/2000/svg" xmlns:xlink="http://www.w3.org/1999/xlink" overflow="hidden"><defs><clipPath id="clip0"><path d="M0 0 742 0 742 295 0 295Z" fill-rule="evenodd" clip-rule="evenodd"/></clipPath><clipPath id="clip1"><path d="M169-91 741-91 741 135 169 135Z" fill-rule="evenodd" clip-rule="evenodd"/></clipPath><clipPath id="clip2"><path d="M169-91 741-91 741 135 169 135Z" fill-rule="evenodd" clip-rule="evenodd"/></clipPath><clipPath id="clip3"><path d="M169 0 741 0 741 225 169 225Z" fill-rule="evenodd" clip-rule="evenodd"/></clipPath><clipPath id="clip4"><path d="M169 86 741 86 741 311 169 311Z" fill-rule="evenodd" clip-rule="evenodd"/></clipPath><clipPath id="clip5"><path d="M169-6 741-6 741 519 169 519Z" fill-rule="evenodd" clip-rule="evenodd"/></clipPath><clipPath id="clip6"><path d="M22 85 158 85 158 266 22 266Z" fill-rule="evenodd" clip-rule="evenodd"/></clipPath><clipPath id="clip7"><path d="M23-44 156-44 156 137 23 137Z" fill-rule="evenodd" clip-rule="evenodd"/></clipPath><clipPath id="clip8"><path d="M24 63 49 63 49 85 24 85Z" fill-rule="evenodd" clip-rule="evenodd"/></clipPath><clipPath id="clip9"><path d="M24 63 49 63 49 85 24 85Z" fill-rule="evenodd" clip-rule="evenodd"/></clipPath><clipPath id="clip10"><path d="M24 63 49 63 49 85 24 85Z" fill-rule="evenodd" clip-rule="evenodd"/></clipPath></defs><g clip-path="url(#clip0)"><rect x="0" y="0" width="742" height="294.667" fill="#FFFFFF" transform="scale(1 1.00113)"/><path d="M0-1 1.93089-1 1.93089 22.0947 0.930888 21.0947 126.988 21.0947 125.988 22.0947 125.988 4.39774 127.988 4.39774 127.988 23.0947-0.0691124 23.0947-0.0691124 0 0.930888 1 0 1ZM119.448 15.9121 126.988 2.33862 134.529 15.9121C134.797 16.3949 134.624 17.0037 134.141 17.2719 133.658 17.5401 133.049 17.3662 132.781 16.8834L126.114 4.88339 127.863 4.88339 121.196 16.8834C120.928 17.3662 120.319 17.5401 119.836 17.2719 119.353 17.0037 119.179 16.3949 119.448 15.9121Z" transform="matrix(-4.37608e-08 1.00113 -1 -4.37114e-08 24.3377 74)"/><path d="M0 0 570.722 0 570.722 32 0 32Z" fill="#E7E6E6" fill-rule="evenodd" transform="matrix(1 0 -0 1.00113 169.697 6.08131)"/><path d="M0 90.075 570.722 90.075 570.722 122.075 0 122.075Z" fill="#E7E6E6" fill-rule="evenodd" transform="matrix(1 0 -0 1.00113 169.697 6.08131)"/><path d="M0 175.883 570.722 175.883 570.722 207.883 0 207.883Z" fill="#E7E6E6" fill-rule="evenodd" transform="matrix(1 0 -0 1.00113 169.697 6.08131)"/><path d="M-0.666667 32 571.388 32" stroke="#FFFFFF" stroke-width="1.33333" stroke-linejoin="round" stroke-miterlimit="10" fill="none" fill-rule="evenodd" transform="matrix(1 0 -0 1.00113 169.697 6.08131)"/><path d="M-0.666667 90.075 571.388 90.075" stroke="#FFFFFF" stroke-width="1.33333" stroke-linejoin="round" stroke-miterlimit="10" fill="none" fill-rule="evenodd" transform="matrix(1 0 -0 1.00113 169.697 6.08131)"/><path d="M-0.666667 122.075 571.388 122.075" stroke="#FFFFFF" stroke-width="1.33333" stroke-linejoin="round" stroke-miterlimit="10" fill="none" fill-rule="evenodd" transform="matrix(1 0 -0 1.00113 169.697 6.08131)"/><path d="M-0.666667 175.883 571.388 175.883" stroke="#FFFFFF" stroke-width="1.33333" stroke-linejoin="round" stroke-miterlimit="10" fill="none" fill-rule="evenodd" transform="matrix(1 0 -0 1.00113 169.697 6.08131)"/><path d="M-0.666667 207.883 571.388 207.883" stroke="#FFFFFF" stroke-width="1.33333" stroke-linejoin="round" stroke-miterlimit="10" fill="none" fill-rule="evenodd" transform="matrix(1 0 -0 1.00113 169.697 6.08131)"/><path d="M0-1.49995 0 288.791" stroke="#FFFFFF" stroke-width="1.33333" stroke-linejoin="round" stroke-miterlimit="10" fill="none" fill-rule="evenodd" transform="matrix(1 0 -0 1.00113 169.697 6.08131)"/><path d="M570.722-1.49995 570.722 288.791" stroke="#FFFFFF" stroke-width="1.33333" stroke-linejoin="round" stroke-miterlimit="10" fill="none" fill-rule="evenodd" transform="matrix(1 0 -0 1.00113 169.697 6.08131)"/><path d="M-0.666667 0 571.388 0" stroke="#000000" stroke-width="3" stroke-linejoin="round" stroke-miterlimit="10" fill="none" fill-rule="evenodd" transform="matrix(1 0 -0 1.00113 169.697 6.08131)"/><path d="M-0.666667 287.292 571.388 287.292" stroke="#000000" stroke-width="3" stroke-linejoin="round" stroke-miterlimit="10" fill="none" fill-rule="evenodd" transform="matrix(1 0 -0 1.00113 169.697 6.08131)"/><g clip-path="url(#clip1)"><text font-family="Cambria Math,Cambria Math_MSFontService,sans-serif" font-weight="400" font-size="27" transform="matrix(1 0 0 1.00113 177.6 32)">ğ‘„</text></g><text font-family="Cambria Math,Cambria Math_MSFontService,sans-serif" font-weight="400" font-size="20" transform="matrix(1 0 0 1.00113 194.133 38)">1</text><g clip-path="url(#clip2)"><text font-family="Times New Roman,Times New Roman_MSFontService,sans-serif" font-weight="400" font-size="27" transform="matrix(1 0 0 1.00113 206.573 32)">: What is id of the car with the max horsepower?</text></g><text font-family="Cambria Math,Cambria Math_MSFontService,sans-serif" font-weight="400" font-size="27" transform="matrix(1 0 0 1.00113 179.433 63)">ğ‘†<tspan font-size="20" x="12.3733" y="4.99435">1</tspan><tspan font-family="Times New Roman,Times New Roman_MSFontService,sans-serif" x="26.8133" y="0">: </tspan><tspan fill="#0002FF" font-family="Courier New,Courier New_MSFontService,sans-serif" font-weight="700" font-size="21" x="40.8133" y="0">SELECT</tspan><tspan font-family="Courier New,Courier New_MSFontService,sans-serif" font-weight="700" font-size="21" x="128.147" y="0">Id</tspan><tspan fill="#0002FF" font-family="Courier New,Courier New_MSFontService,sans-serif" font-weight="700" font-size="21" x="164.147" y="0">FROM</tspan><tspan font-family="Courier New,Courier New_MSFontService,sans-serif" font-weight="700" font-size="21" x="225.813" y="0">CARS_DATA</tspan><tspan fill="#0002FF" font-family="Courier New,Courier New_MSFontService,sans-serif" font-weight="700" font-size="21" x="41.5" y="26.9695">ORDER</tspan><tspan fill="#0002FF" font-family="Courier New,Courier New_MSFontService,sans-serif" font-weight="700" font-size="21" x="116" y="26.9695">BY</tspan><tspan font-family="Courier New,Courier New_MSFontService,sans-serif" font-weight="700" font-size="21" x="152" y="26.9695">Horsepower</tspan><tspan fill="#0002FF" font-family="Courier New,Courier New_MSFontService,sans-serif" font-weight="700" font-size="21" x="290.667" y="26.9695">DESC</tspan><tspan fill="#0002FF" font-family="Courier New,Courier New_MSFontService,sans-serif" font-weight="700" font-size="21" x="352.333" y="26.9695">LIMIT</tspan><tspan font-family="Courier New,Courier New_MSFontService,sans-serif" font-weight="700" font-size="21" x="426.833" y="26.9695">1</tspan></text><g clip-path="url(#clip3)"><text font-family="Cambria Math,Cambria Math_MSFontService,sans-serif" font-weight="400" font-size="27" transform="matrix(1 0 0 1.00113 177.6 122)">ğ‘„</text></g><text font-family="Cambria Math,Cambria Math_MSFontService,sans-serif" font-weight="400" font-size="20" transform="matrix(1 0 0 1.00113 194.753 128)">2<tspan font-family="Times New Roman,Times New Roman_MSFontService,sans-serif" font-size="27" x="12.44" y="-5.99322">: </tspan><tspan font-family="Times New Roman,Times New Roman_MSFontService,sans-serif" font-size="27" x="26.44" y="-5.99322">How</tspan><tspan font-family="Times New Roman,Times New Roman_MSFontService,sans-serif" font-size="27" x="85.1067" y="-5.99322">about</tspan><tspan font-family="Times New Roman,Times New Roman_MSFontService,sans-serif" font-size="27" x="150.94" y="-5.99322">with</tspan><tspan font-family="Times New Roman,Times New Roman_MSFontService,sans-serif" font-size="27" x="204.94" y="-5.99322">the</tspan><tspan font-family="Times New Roman,Times New Roman_MSFontService,sans-serif" font-size="27" x="244.107" y="-5.99322">max</tspan><tspan font-family="Times New Roman,Times New Roman_MSFontService,sans-serif" font-size="27" x="296.607" y="-5.99322">mpg?</tspan><tspan font-size="27" x="-15.32" y="24.9718">ğ‘†</tspan><tspan x="-2.32666" y="30.965">2</tspan><tspan font-family="Times New Roman,Times New Roman_MSFontService,sans-serif" font-size="27" x="12.1133" y="24.9718">: </tspan><tspan fill="#0002FF" font-family="Courier New,Courier New_MSFontService,sans-serif" font-weight="700" font-size="21" x="26.1133" y="24.9718">SELECT</tspan><tspan font-family="Courier New,Courier New_MSFontService,sans-serif" font-weight="700" font-size="21" x="113.447" y="24.9718">Id</tspan><tspan fill="#0002FF" font-family="Courier New,Courier New_MSFontService,sans-serif" font-weight="700" font-size="21" x="149.447" y="24.9718">FROM</tspan><tspan font-family="Courier New,Courier New_MSFontService,sans-serif" font-weight="700" font-size="21" x="211.113" y="24.9718">CARS_DATA</tspan><tspan fill="#0002FF" font-family="Courier New,Courier New_MSFontService,sans-serif" font-weight="700" font-size="21" x="26.18" y="46.9469">ORDER</tspan><tspan fill="#0002FF" font-family="Courier New,Courier New_MSFontService,sans-serif" font-weight="700" font-size="21" x="100.68" y="46.9469">BY</tspan><tspan font-family="Courier New,Courier New_MSFontService,sans-serif" font-weight="700" font-size="21" x="136.68" y="46.9469">MPG</tspan><tspan fill="#0002FF" font-family="Courier New,Courier New_MSFontService,sans-serif" font-weight="700" font-size="21" x="185.513" y="46.9469">DESC</tspan><tspan fill="#0002FF" font-family="Courier New,Courier New_MSFontService,sans-serif" font-weight="700" font-size="21" x="247.18" y="46.9469">LIMIT</tspan><tspan font-family="Courier New,Courier New_MSFontService,sans-serif" font-weight="700" font-size="21" x="321.68" y="46.9469">1</tspan></text><g clip-path="url(#clip4)"><text font-family="Cambria Math,Cambria Math_MSFontService,sans-serif" font-weight="400" font-size="27" transform="matrix(1 0 0 1.00113 177.6 208)">ğ‘„</text></g><text font-family="Cambria Math,Cambria Math_MSFontService,sans-serif" font-weight="400" font-size="20" transform="matrix(1 0 0 1.00113 194.753 214)">3<tspan font-family="Times New Roman,Times New Roman_MSFontService,sans-serif" font-size="27" x="12.44" y="-5.99322">: Show</tspan><tspan font-family="Times New Roman,Times New Roman_MSFontService,sans-serif" font-size="27" x="93.94" y="-5.99322">its</tspan><tspan font-family="Times New Roman,Times New Roman_MSFontService,sans-serif" font-size="27" x="125.607" y="-5.99322">Make!</tspan><tspan font-size="27" x="-15.32" y="24.9718">ğ‘†</tspan><tspan x="-2.32666" y="30.965">3</tspan><tspan font-family="Times New Roman,Times New Roman_MSFontService,sans-serif" font-size="27" x="12.1133" y="24.9718">: </tspan><tspan fill="#0002FF" font-family="Courier New,Courier New_MSFontService,sans-serif" font-weight="700" font-size="21" x="26.1133" y="24.9718">SELECT</tspan><tspan font-family="Courier New,Courier New_MSFontService,sans-serif" font-weight="700" font-size="21" x="113.447" y="24.9718">T1.Make</tspan><tspan fill="#0002FF" font-family="Courier New,Courier New_MSFontService,sans-serif" font-weight="700" font-size="21" x="213.613" y="24.9718">FROM</tspan><tspan font-family="Courier New,Courier New_MSFontService,sans-serif" font-weight="700" font-size="21" x="275.28" y="24.9718">CAR_NAMES</tspan><tspan fill="#0002FF" font-family="Courier New,Courier New_MSFontService,sans-serif" font-weight="700" font-size="21" x="401.113" y="24.9718">AS</tspan><tspan font-family="Courier New,Courier New_MSFontService,sans-serif" font-weight="700" font-size="21" x="437.113" y="24.9718">T1</tspan><tspan fill="#0002FF" font-family="Courier New,Courier New_MSFontService,sans-serif" font-weight="700" font-size="21" x="26.18" y="46.9469">JOIN</tspan><tspan font-family="Courier New,Courier New_MSFontService,sans-serif" font-weight="700" font-size="21" x="87.8467" y="46.9469">CARS_DATA</tspan><tspan fill="#0002FF" font-family="Courier New,Courier New_MSFontService,sans-serif" font-weight="700" font-size="21" x="213.68" y="46.9469">AS</tspan><tspan font-family="Courier New,Courier New_MSFontService,sans-serif" font-weight="700" font-size="21" x="249.68" y="46.9469">T2 </tspan><tspan fill="#0002FF" font-family="Courier New,Courier New_MSFontService,sans-serif" font-weight="700" font-size="21" x="288.18" y="46.9469">ON</tspan><tspan font-family="Courier New,Courier New_MSFontService,sans-serif" font-weight="700" font-size="21" x="324.18" y="46.9469">T1.MakeId</tspan><tspan font-family="Courier New,Courier New_MSFontService,sans-serif" font-weight="700" font-size="21" x="450.013" y="46.9469">=</tspan></text><g clip-path="url(#clip5)"><text font-family="Courier New,Courier New_MSFontService,sans-serif" font-weight="700" font-size="21" transform="matrix(1 0 0 1.00113 667.933 261)">T2.Id</text></g><text fill="#0002FF" font-family="Courier New,Courier New_MSFontService,sans-serif" font-weight="700" font-size="21" transform="matrix(1 0 0 1.00113 220.933 287)">ORDER<tspan x="74.5" y="0">BY</tspan><tspan fill="#000000" x="110.5" y="0">T2.MPG</tspan><tspan x="197.833" y="0">DESC</tspan><tspan x="259.5" y="0">LIMIT</tspan><tspan fill="#000000" x="334" y="0">1</tspan></text><path d="M0 0 134.177 0 134.177 26.3427 0 26.3427Z" fill-rule="evenodd" transform="matrix(1 0 -0 1.00113 22.8391 162.374)"/><path d="M0 26.3427 134.177 26.3427 134.177 52.6854 0 52.6854Z" fill="#E7E7E7" fill-rule="evenodd" transform="matrix(1 0 -0 1.00113 22.8391 162.374)"/><path d="M0 52.6854 134.177 52.6854 134.177 79.028 0 79.028Z" fill="#E7E7E7" fill-rule="evenodd" transform="matrix(1 0 -0 1.00113 22.8391 162.374)"/><path d="M0 79.028 134.177 79.028 134.177 105.371 0 105.371Z" fill="#E7E7E7" fill-rule="evenodd" transform="matrix(1 0 -0 1.00113 22.8391 162.374)"/><path d="M-0.666667 26.3427 134.844 26.3427" stroke="#FFFFFF" stroke-width="4" stroke-linejoin="round" stroke-miterlimit="10" fill="none" fill-rule="evenodd" transform="matrix(1 0 -0 1.00113 22.8391 162.374)"/><path d="M-0.666667 52.6854 134.844 52.6854" stroke="#FFFFFF" stroke-width="1.33333" stroke-linejoin="round" stroke-miterlimit="10" fill="none" fill-rule="evenodd" transform="matrix(1 0 -0 1.00113 22.8391 162.374)"/><path d="M-0.666667 79.028 134.844 79.028" stroke="#FFFFFF" stroke-width="1.33333" stroke-linejoin="round" stroke-miterlimit="10" fill="none" fill-rule="evenodd" transform="matrix(1 0 -0 1.00113 22.8391 162.374)"/><path d="M0-0.666667 0 106.037" stroke="#FFFFFF" stroke-width="1.33333" stroke-linejoin="round" stroke-miterlimit="10" fill="none" fill-rule="evenodd" transform="matrix(1 0 -0 1.00113 22.8391 162.374)"/><path d="M134.177-0.666667 134.177 106.037" stroke="#FFFFFF" stroke-width="1.33333" stroke-linejoin="round" stroke-miterlimit="10" fill="none" fill-rule="evenodd" transform="matrix(1 0 -0 1.00113 22.8391 162.374)"/><path d="M-0.666667 0 134.844 0" stroke="#FFFFFF" stroke-width="1.33333" stroke-linejoin="round" stroke-miterlimit="10" fill="none" fill-rule="evenodd" transform="matrix(1 0 -0 1.00113 22.8391 162.374)"/><path d="M-0.666667 105.371 134.844 105.371" stroke="#FFFFFF" stroke-width="1.33333" stroke-linejoin="round" stroke-miterlimit="10" fill="none" fill-rule="evenodd" transform="matrix(1 0 -0 1.00113 22.8391 162.374)"/><g clip-path="url(#clip6)"><text fill="#FFFFFF" font-family="Courier New,Courier New_MSFontService,sans-serif" font-weight="700" font-size="21" transform="matrix(1 0 0 1.00113 25.761 182)">CARS_NAMES</text></g><text font-family="Times New Roman,Times New Roman_MSFontService,sans-serif" font-weight="400" font-size="21" transform="matrix(1 0 0 1.00113 56.6777 210)">MakeId<tspan x="5.33333" y="25.9706">Model</tspan><tspan x="8.91669" y="52.9401">Make</tspan></text><path d="M0 0 131.839 0 131.839 26.3427 0 26.3427Z" fill-rule="evenodd" transform="matrix(1 0 -0 1.00113 23.8436 33.6342)"/><path d="M0 26.3427 131.839 26.3427 131.839 52.6854 0 52.6854Z" fill="#E7E7E7" fill-rule="evenodd" transform="matrix(1 0 -0 1.00113 23.8436 33.6342)"/><path d="M0 52.6854 131.839 52.6854 131.839 79.028 0 79.028Z" fill="#E7E7E7" fill-rule="evenodd" transform="matrix(1 0 -0 1.00113 23.8436 33.6342)"/><path d="M0 79.028 131.839 79.028 131.839 105.371 0 105.371Z" fill="#E7E7E7" fill-rule="evenodd" transform="matrix(1 0 -0 1.00113 23.8436 33.6342)"/><path d="M-0.666667 26.3427 132.506 26.3427" stroke="#FFFFFF" stroke-width="4" stroke-linejoin="round" stroke-miterlimit="10" fill="none" fill-rule="evenodd" transform="matrix(1 0 -0 1.00113 23.8436 33.6342)"/><path d="M-0.666667 52.6854 132.506 52.6854" stroke="#FFFFFF" stroke-width="1.33333" stroke-linejoin="round" stroke-miterlimit="10" fill="none" fill-rule="evenodd" transform="matrix(1 0 -0 1.00113 23.8436 33.6342)"/><path d="M-0.666667 79.028 132.506 79.028" stroke="#FFFFFF" stroke-width="1.33333" stroke-linejoin="round" stroke-miterlimit="10" fill="none" fill-rule="evenodd" transform="matrix(1 0 -0 1.00113 23.8436 33.6342)"/><path d="M0-0.666667 0 106.037" stroke="#FFFFFF" stroke-width="1.33333" stroke-linejoin="round" stroke-miterlimit="10" fill="none" fill-rule="evenodd" transform="matrix(1 0 -0 1.00113 23.8436 33.6342)"/><path d="M131.839-0.666667 131.839 106.037" stroke="#FFFFFF" stroke-width="1.33333" stroke-linejoin="round" stroke-miterlimit="10" fill="none" fill-rule="evenodd" transform="matrix(1 0 -0 1.00113 23.8436 33.6342)"/><path d="M-0.666667 0 132.506 0" stroke="#FFFFFF" stroke-width="1.33333" stroke-linejoin="round" stroke-miterlimit="10" fill="none" fill-rule="evenodd" transform="matrix(1 0 -0 1.00113 23.8436 33.6342)"/><path d="M-0.666667 105.371 132.506 105.371" stroke="#FFFFFF" stroke-width="1.33333" stroke-linejoin="round" stroke-miterlimit="10" fill="none" fill-rule="evenodd" transform="matrix(1 0 -0 1.00113 23.8436 33.6342)"/><g clip-path="url(#clip7)"><text fill="#FFFFFF" font-family="Courier New,Courier New_MSFontService,sans-serif" font-weight="700" font-size="21" transform="matrix(1 0 0 1.00113 32.0133 53)">CARS_DATA</text></g><text font-family="Times New Roman,Times New Roman_MSFontService,sans-serif" font-weight="400" font-size="21" transform="matrix(1 0 0 1.00113 80.8466 81)">Id<tspan x="-14.1667" y="26.9695">MPG</tspan><tspan x="-43.25" y="52.9401">Horsepower</tspan></text><g clip-path="url(#clip8)"><g clip-path="url(#clip9)"><g clip-path="url(#clip10)"><path d="M14.1094 11.2656 15.5313 12.6875 16.9531 11.2656 18.375 12.6875 20.125 10.5 18.375 8.3125 9.51563 8.3125C8.72813 6.86875 7.21875 5.90625 5.46875 5.90625 2.93125 5.90625 0.875 7.9625 0.875 10.5 0.875 13.0375 2.93125 15.0938 5.46875 15.0938 7.21875 15.0938 8.72813 14.1313 9.51563 12.6875L10.9375 12.6875 11.8125 11.8125 12.6875 12.6875 14.1094 11.2656ZM3.5 11.8125C2.77813 11.8125 2.1875 11.2219 2.1875 10.5 2.1875 9.77813 2.77813 9.1875 3.5 9.1875 4.22188 9.1875 4.8125 9.77813 4.8125 10.5 4.8125 11.2219 4.22188 11.8125 3.5 11.8125Z" transform="matrix(-4.37114e-08 1 -1.14286 -4.99559e-08 48.9999 63.0001)"/></g></g></g></g></svg>